<?xml version="1.0" encoding="UTF-8"?>
<svg xmlns="http://www.w3.org/2000/svg" xmlns:xlink="http://www.w3.org/1999/xlink" width="167.474" height="165.224" viewBox="0 0 167.474 165.224">
  <defs>
    <clipPath id="clip-path">
      <rect id="Rectangle_15" data-name="Rectangle 15" width="162" height="159.667" transform="translate(0 0)" fill="#e2dd00"></rect>
    </clipPath>
  </defs>
  <g id="Selo" transform="translate(5.572 0.002) rotate(2)">
    <g id="Group_26" data-name="Group 26" transform="translate(0 -0.002)" clip-path="url(#clip-path)">
      <path id="Path_61" data-name="Path 61" d="M11.656,343.213l6.839,1.89-.406,1.477-6.254-1.728c-1.8-.5-3.372.611-3.977,2.805-.623,2.258.151,4.107,1.975,4.612l6.21,1.715-.408,1.475L0,351.141l.409-1.476,7.145,1.973a4.725,4.725,0,0,1-1.634-5.171,4.4,4.4,0,0,1,5.736-3.254" transform="translate(0 -288.42)" fill="#e2dd00"></path>
      <path id="Path_62" data-name="Path 62" d="M75.922,258.37,71.2,267.792c1.762.4,3.656-.611,4.7-2.705a5.544,5.544,0,0,0,.539-4.137l.838-1.672a6.188,6.188,0,0,1,.587,6.818,6.013,6.013,0,1,1-2.61-8.108c.221.111.453.252.663.384m-6.191,8.685,4.015-8.012c-1.751-.425-3.656.661-4.664,2.674-1.02,2.034-.728,4.169.649,5.338" transform="translate(-55.841 -216.357)" fill="#e2dd00"></path>
      <path id="Path_63" data-name="Path 63" d="M119.16,167.2l9.059,7.065-.942,1.208-2.327-1.815a5.225,5.225,0,0,1-.453,5.817,6.02,6.02,0,0,1-9.484-7.4,5.228,5.228,0,0,1,5.532-1.856l-2.326-1.815Zm3.587,4.74c-1.723-1.343-4.21-.827-5.79,1.2-1.593,2.042-1.473,4.562.249,5.907s4.2.844,5.791-1.2c1.577-2.026,1.472-4.564-.25-5.908" transform="translate(-95.68 -140.588)" fill="#e2dd00"></path>
      <path id="Path_64" data-name="Path 64" d="M146.7,121.267l1.1-1.069,11.319,11.6-1.1,1.068Z" transform="translate(-123.358 -101.069)" fill="#e2dd00"></path>
      <path id="Path_65" data-name="Path 65" d="M191.49,100.737l3.641,4.53c.579.719,1.334.689,2.264-.058l1.335-1.073,1.353,1.686-1.438,1.157c-1.668,1.34-3.16,1.21-4.458-.405l-3.908-4.862-1.931,1.553-1.341-1.667,1.931-1.553-1.878-2.335.972-1.272,2.117,2.633,2.913-2.342,1.341,1.667Z" transform="translate(-157.248 -81.09)" fill="#e2dd00"></path>
      <path id="Path_66" data-name="Path 66" d="M242.6,57.66l3.5,6.168-1.332.757-3.2-5.64c-.924-1.625-2.816-1.948-4.8-.825-2.035,1.158-2.794,3.013-1.86,4.658l3.183,5.6-1.333.757-8.011-14.1,1.332-.756,3.66,6.442a4.729,4.729,0,0,1,2.5-4.813A4.4,4.4,0,0,1,242.6,57.66" transform="translate(-192.353 -45.642)" fill="#e2dd00"></path>
      <path id="Path_67" data-name="Path 67" d="M328.285,19.912l-.7,16.98-1.909.679.475-4.71-.572.2L317.359,23.8l1.549-.55,6.588,7.1.467-.166.624-9.663Z" transform="translate(-266.856 -16.743)" fill="#e2dd00"></path>
      <path id="Path_68" data-name="Path 68" d="M442.87,12.154l1.524-.15c.1,1.009,1.627,1.582,3.689,1.378s3.415-.947,3.331-1.8-1.514-1.118-4.034-1.209c-2.683-.121-4.582-1.019-4.777-2.992-.21-2.129,1.773-3.592,4.463-3.857,2.869-.283,5.039,1.065,5.25,3.2l-1.57.154c-.091-.919-1.5-1.437-3.473-1.242-1.906.187-3.195.88-3.115,1.687.076.763,1.442,1.081,3.919,1.177,2.679.1,4.709.938,4.91,2.978.216,2.2-1.828,3.734-4.718,4.018-2.959.292-5.183-1.142-5.4-3.338" transform="translate(-372.157 -2.932)" fill="#e2dd00"></path>
      <path id="Path_69" data-name="Path 69" d="M539.4,6.292l-.971,7.416-1.519-.2.9-6.88c.2-1.563-.932-2.78-2.854-3.031-2.031-.267-3.512.63-3.719,2.216l-.9,6.835-1.541-.2.9-6.88c.2-1.563-.931-2.78-2.853-3.031-2.01-.263-3.512.63-3.72,2.217l-.9,6.835-1.519-.2L522.212,0l1.519.2-.308,2.346A4.161,4.161,0,0,1,527.741.449a3.907,3.907,0,0,1,3.566,3.307,4.285,4.285,0,0,1,4.543-2.245A3.963,3.963,0,0,1,539.4,6.292" transform="translate(-437.855 0.002)" fill="#e2dd00"></path>
      <path id="Path_70" data-name="Path 70" d="M651.668,36.949a6.116,6.116,0,1,1,3.5,7.841,5.942,5.942,0,0,1-3.5-7.841m9.891,3.9c.8-2.032-.4-4.272-2.788-5.213-2.41-.949-4.793-.121-5.594,1.911s.378,4.264,2.786,5.213c2.389.941,4.794.121,5.595-1.911" transform="translate(-547.594 -27.862)" fill="#e2dd00"></path>
      <path id="Path_71" data-name="Path 71" d="M732.615,76.832a6.112,6.112,0,1,1,1.913,8.364,5.936,5.936,0,0,1-1.913-8.364m8.946,5.731c1.179-1.838.435-4.265-1.726-5.651-2.18-1.4-4.678-1.044-5.855.794s-.455,4.254,1.726,5.651c2.161,1.385,4.677,1.046,5.855-.794" transform="translate(-615.203 -62.26)" fill="#e2dd00"></path>
      <path id="Path_72" data-name="Path 72" d="M808.056,111.288l-3.823,4.376c-.608.7-.445,1.435.453,2.221l1.29,1.126-1.424,1.628-1.391-1.215c-1.611-1.408-1.744-2.9-.38-4.461l4.105-4.7-1.867-1.631,1.408-1.611,1.866,1.629,1.972-2.256,1.421.733-2.222,2.545,2.816,2.461-1.407,1.611Z" transform="translate(-674.244 -89.465)" fill="#e2dd00"></path>
      <path id="Path_73" data-name="Path 73" d="M840.743,153.438l-5.455,4.532-.978-1.178,4.988-4.144c1.437-1.194,1.421-3.115-.031-4.863-1.5-1.8-3.456-2.222-4.911-1.013l-4.952,4.115-.978-1.177,12.468-10.361.978,1.177-5.7,4.735a4.729,4.729,0,0,1,5.177,1.613,4.4,4.4,0,0,1-.607,6.564" transform="translate(-696.592 -117.173)" fill="#e2dd00"></path>
      <path id="Path_74" data-name="Path 74" d="M889.426,218.774l.816,1.295-9.715,6.121-.816-1.3Zm2.606-2.413a1.435,1.435,0,1,1-.273,1.848,1.31,1.31,0,0,1,.273-1.848" transform="translate(-739.718 -181.78)" fill="#e2dd00"></path>
      <path id="Path_75" data-name="Path 75" d="M911.483,282.561l-4.4-9.575c-1.417,1.123-1.809,3.235-.831,5.363a5.546,5.546,0,0,0,2.894,3.008l.78,1.7a6.185,6.185,0,0,1-5.688-3.8,6.013,6.013,0,1,1,7.962,3.032c-.226.1-.481.195-.715.278M908.574,272.3l3.744,8.144c1.427-1.1,1.769-3.266.829-5.313-.95-2.066-2.8-3.176-4.573-2.831" transform="translate(-759.826 -227.518)" fill="#e2dd00"></path>
      <path id="Path_76" data-name="Path 76" d="M934.307,354.806l.38,1.483c-.983.251-1.316,1.849-.8,3.856s1.455,3.23,2.285,3.016.874-1.665.582-4.17c-.289-2.669.31-4.683,2.23-5.174,2.073-.533,3.82,1.2,4.491,3.822.716,2.793-.285,5.143-2.359,5.674l-.392-1.528c.895-.228,1.193-1.7.7-3.62-.475-1.854-1.357-3.024-2.143-2.822-.741.191-.847,1.589-.564,4.051.311,2.664-.213,4.8-2.2,5.307-2.139.547-3.968-1.238-4.689-4.052-.738-2.88.339-5.3,2.478-5.843" transform="translate(-783.347 -297.431)" fill="#e2dd00"></path>
      <path id="Path_77" data-name="Path 77" d="M26.938,514.979l.173,1.725c-1.636.166-2.692,1.813-2.487,3.829.206,2.039,1.57,3.441,3.2,3.275l10.6-1.069L38.6,524.4,28,525.467a5.272,5.272,0,0,1-1.059-10.488" transform="translate(-18.756 -433.027)" fill="#e2dd00"></path>
      <path id="Path_78" data-name="Path 78" d="M43.873,598.3a6.113,6.113,0,1,1-4,7.593,5.939,5.939,0,0,1,4-7.593m3.05,10.179c2.093-.626,3.11-2.953,2.375-5.412-.744-2.48-2.867-3.841-4.959-3.214s-3.117,2.933-2.374,5.413c.737,2.458,2.868,3.842,4.958,3.213" transform="translate(-33.289 -502.864)" fill="#e2dd00"></path>
      <path id="Path_79" data-name="Path 79" d="M75.088,664.493l.632,1.394-10.455,4.742-.634-1.394ZM78,662.457a1.436,1.436,0,1,1-.521,1.794A1.312,1.312,0,0,1,78,662.457" transform="translate(-54.346 -556.949)" fill="#e2dd00"></path>
      <path id="Path_80" data-name="Path 80" d="M92.264,713.747l-6.014,3.766-.813-1.3,5.5-3.442c1.584-.993,1.827-2.9.62-4.827-1.244-1.986-3.13-2.665-4.733-1.661L81.361,709.7l-.812-1.3,9.737-6.1.814,1.3L88.866,705a4.723,4.723,0,0,1,4.877,2.315,4.4,4.4,0,0,1-1.479,6.427" transform="translate(-67.731 -590.545)" fill="#e2dd00"></path>
      <path id="Path_81" data-name="Path 81" d="M197.075,785.779l-3.965-3.57-8.887,9.872-1.237-1.115,8.885-9.871-3.982-3.585,1.506-1.674,9.186,8.269Z" transform="translate(-153.865 -652.373)" fill="#e2dd00"></path>
      <path id="Path_82" data-name="Path 82" d="M250.369,841.272l-3.61,6.107-1.319-.78,3.3-5.583c.951-1.609.29-3.413-1.669-4.57-2.014-1.193-4-.93-4.965.7l-3.279,5.545-1.318-.78,8.254-13.957,1.318.779-3.771,6.378a4.728,4.728,0,0,1,5.417-.224,4.4,4.4,0,0,1,1.639,6.386" transform="translate(-199.715 -696.196)" fill="#e2dd00"></path>
      <path id="Path_83" data-name="Path 83" d="M325.777,872.23l1.409.6L322.7,883.4l-1.409-.6Zm.763-3.468a1.435,1.435,0,1,1,.831,1.674,1.312,1.312,0,0,1-.831-1.674" transform="translate(-270.159 -729.905)" fill="#e2dd00"></path>
      <path id="Path_84" data-name="Path 84" d="M358.422,896.5l1.672.462c-.384,1.389,1.147,2.957,3.6,3.634,2.193.606,4.235.235,4.607-1.112.468-1.692-2.221-3.043-3.9-3.832-2.877-1.426-4.457-3.4-3.809-5.749.713-2.584,3.569-3.618,6.608-2.778,3.192.881,5.015,3.417,4.338,5.87l-1.672-.46c.353-1.282-1.027-2.714-3.307-3.343-2.063-.57-3.939-.2-4.287,1.058-.455,1.651,2.4,3.069,3.6,3.635,3.073,1.48,4.8,3.429,4.124,5.882-.75,2.714-3.818,3.758-6.966,2.889-3.343-.923-5.322-3.572-4.609-6.156" transform="translate(-301.263 -745.71)" fill="#e2dd00"></path>
      <path id="Path_85" data-name="Path 85" d="M473.353,932.581l-.137,7.472-1.532-.029.129-6.932c.028-1.575-1.234-2.656-3.17-2.692-2.05-.038-3.418,1.017-3.449,2.615l-.127,6.887-1.554-.028.128-6.933c.03-1.575-1.233-2.657-3.169-2.692-2.025-.037-3.418,1.018-3.448,2.615l-.128,6.887-1.53-.028.211-11.479,1.531.028-.044,2.363a4.158,4.158,0,0,1,4.054-2.559,3.9,3.9,0,0,1,3.91,2.886,4.281,4.281,0,0,1,4.261-2.735,3.96,3.96,0,0,1,4.062,4.353" transform="translate(-382.903 -780.386)" fill="#e2dd00"></path>
      <path id="Path_86" data-name="Path 86" d="M588.512,923.228a6.117,6.117,0,1,1,7.352,4.434,5.943,5.943,0,0,1-7.352-4.434m10.344-2.46c-.506-2.126-2.771-3.277-5.269-2.682-2.521.6-4,2.642-3.5,4.768s2.747,3.283,5.269,2.682c2.5-.594,4-2.641,3.5-4.768" transform="translate(-494.712 -770.043)" fill="#e2dd00"></path>
      <path id="Path_87" data-name="Path 87" d="M676.7,893.827a6.113,6.113,0,1,1,8.081,2.88,5.938,5.938,0,0,1-8.081-2.88m9.641-4.467c-.919-1.98-3.366-2.659-5.695-1.58-2.349,1.089-3.4,3.384-2.477,5.365s3.345,2.669,5.694,1.58c2.328-1.078,3.393-3.384,2.477-5.365" transform="translate(-568.52 -744.326)" fill="#e2dd00"></path>
      <path id="Path_88" data-name="Path 88" d="M735.8,838.179l1.346-.945,8.244,5.079.406-.286-1.981-9.477,1.473-1.036,2.805,12.063-1.9,1.333Z" transform="translate(-618.707 -699.191)" fill="#e2dd00"></path>
      <path id="Path_89" data-name="Path 89" d="M819.069,752.41l5.629,4.922-1.01,1.153-5.219-4.566c-1.187-1.038-2.829-.768-4.1.688-1.349,1.543-1.425,3.272-.22,4.324l5.185,4.536-1.023,1.17-5.221-4.567c-1.186-1.038-2.828-.768-4.1.69-1.334,1.524-1.425,3.27-.221,4.323l5.186,4.536-1.007,1.153-8.645-7.561,1.009-1.152,1.78,1.557a4.161,4.161,0,0,1,.656-4.753,3.9,3.9,0,0,1,4.727-1.129,4.282,4.282,0,0,1,.655-5.023,3.961,3.961,0,0,1,5.947-.3" transform="translate(-676.305 -631.667)" fill="#e2dd00"></path>
      <path id="Path_90" data-name="Path 90" d="M904.173,674.883l-4.745,9.412c1.762.409,3.659-.6,4.713-2.693a5.559,5.559,0,0,0,.548-4.138l.841-1.669a6.189,6.189,0,0,1,.572,6.821,6.014,6.014,0,1,1-2.591-8.117c.22.112.452.253.663.385m-6.213,8.672,4.035-8c-1.751-.428-3.658.653-4.672,2.664-1.024,2.032-.739,4.167.637,5.34" transform="translate(-752.276 -566.581)" fill="#e2dd00"></path>
      <path id="Path_91" data-name="Path 91" d="M929.4,590.062l6.839,1.888-.407,1.477-6.253-1.727c-1.8-.5-3.369.612-3.976,2.805-.623,2.258.152,4.107,1.976,4.611l6.208,1.714-.407,1.476-11.073-3.057.407-1.476,2.54.7a4.721,4.721,0,0,1-1.588-5.158,4.4,4.4,0,0,1,5.735-3.253" transform="translate(-775.538 -495.986)" fill="#e2dd00"></path>
      <path id="Path_92" data-name="Path 92" d="M928.247,531.674l5.772.643c.918.1,1.432-.452,1.565-1.638l.188-1.7,2.149.238-.2,1.835c-.236,2.126-1.385,3.085-3.443,2.855l-6.2-.689-.273,2.462-2.128-.236.275-2.462-2.976-.332-.208-1.585,3.355.373.414-3.714,2.126.236Z" transform="translate(-775.921 -443.744)" fill="#e2dd00"></path>
      <path id="Path_93" data-name="Path 93" d="M412.252,284.371a20.437,20.437,0,0,0-20.437,20.437H432.69a20.437,20.437,0,0,0-20.437-20.437" transform="translate(-329.463 -239.117)" fill="#e2dd00"></path>
      <path id="Path_94" data-name="Path 94" d="M543.019,713.921q-.1.607-.2,1.218h-13.65c1.683-.316,3.362-.657,5.043-.977a27.868,27.868,0,0,1,8.812-.242" transform="translate(-444.955 -600.109)" fill="#e2dd00"></path>
      <path id="Path_95" data-name="Path 95" d="M454.019,683.58q-.148.949-.3,1.9h0a29.493,29.493,0,0,0-10.307.3c-3.692.607-7.367,1.329-11.073,1.815-3.025.4-6.084.522-9.128.772l-.456.037q-.163-.978-.322-1.952c2.607-.253,5.215-.482,7.828-.631a73.823,73.823,0,0,0,12.975-2,25.809,25.809,0,0,1,10.787-.248" transform="translate(-355.205 -574.418)" fill="#e2dd00"></path>
      <path id="Path_96" data-name="Path 96" d="M450.739,659.9q-.1.694-.209,1.388a28,28,0,0,0-10.214-.053c-3.767.544-7.517,1.211-11.292,1.684-2.1.266-4.245.185-6.36.369-1.5.131-3.008.252-4.512.379q-.148-.921-.288-1.839c1.033-.083,2.066-.161,3.1-.242,2.513-.2,5.043-.148,7.565-.226a59.006,59.006,0,0,0,10.183-1.431,29.481,29.481,0,0,1,12.029-.031" transform="translate(-351.367 -554.377)" fill="#e2dd00"></path>
      <path id="Path_97" data-name="Path 97" d="M447.811,639.856q-.082.579-.168,1.16a35.119,35.119,0,0,0-12.393-.131,76.079,76.079,0,0,1-12.737,1.249,66.78,66.78,0,0,0-8.153.15c-.082.008-.163.017-.245.027q-.133-.891-.26-1.78a80.037,80.037,0,0,1,9.584-.007,50.064,50.064,0,0,0,9.853-.682c2.1-.292,4.213-.572,6.329-.723a27.283,27.283,0,0,1,8.191.737" transform="translate(-347.995 -537.362)" fill="#e2dd00"></path>
      <path id="Path_98" data-name="Path 98" d="M445.36,622.859q-.077.561-.157,1.123a29.4,29.4,0,0,0-12.422-.488,64.817,64.817,0,0,1-15.234.362,39.269,39.269,0,0,0-6.826.019q-.107-.776-.213-1.547a59.5,59.5,0,0,1,11.379.272,40.478,40.478,0,0,0,9.538-.25c4.284-.471,8.569-.767,12.815.238q.561.133,1.12.271" transform="translate(-345.182 -522.946)" fill="#e2dd00"></path>
      <path id="Path_99" data-name="Path 99" d="M443.182,601.912q-.071.541-.145,1.082a31.673,31.673,0,0,0-6.659-.975c-2.408-.041-4.825.039-7.226.219a53.411,53.411,0,0,1-10.534-.271,56.126,56.126,0,0,0-10.9-.233q-.1-.753-.194-1.5,1.549-.13,3.1-.254a33.42,33.42,0,0,1,8.133.545,52.319,52.319,0,0,0,12.049.427,44.385,44.385,0,0,1,12.376.961" transform="translate(-342.673 -504.442)" fill="#e2dd00"></path>
      <path id="Path_100" data-name="Path 100" d="M441.327,581.93q-.071.574-.146,1.152c-.779-.122-1.559-.248-2.338-.371a82.591,82.591,0,0,0-13.9-.823,52.32,52.32,0,0,1-8.066-.6,53.937,53.937,0,0,0-11.774-.388q-.087-.7-.172-1.409c.323-.034.648-.073.972-.114a36.137,36.137,0,0,1,9.793.419,66.088,66.088,0,0,0,9.856.776,103.335,103.335,0,0,1,13.63,1.094q1.075.138,2.149.269" transform="translate(-340.489 -487.019)" fill="#e2dd00"></path>
      <path id="Path_101" data-name="Path 101" d="M437.069,523.982q-.079.768-.16,1.538c-.191,0-.383-.005-.573-.009a75.461,75.461,0,0,1-11.357-1.053,30.178,30.178,0,0,0-7.881-.1,57.55,57.55,0,0,1-14.346-.6q-2.052-.324-4.112-.582c-.041-.391-.078-.783-.116-1.174,2.942.413,5.875.886,8.815,1.3a35.62,35.62,0,0,0,8.221-.075,43.661,43.661,0,0,1,12.628.407,37.167,37.167,0,0,0,8.881.344" transform="translate(-335.104 -438.938)" fill="#e2dd00"></path>
      <path id="Path_102" data-name="Path 102" d="M438.241,543.283q-.074.669-.152,1.341-1.556-.092-3.113-.25c-3.478-.357-6.947-.8-10.425-1.152a30.793,30.793,0,0,0-3.386-.082,82.167,82.167,0,0,1-13.244-.754,62.181,62.181,0,0,0-7.415-.621q-.064-.59-.124-1.176c4.235.4,8.461.9,12.7,1.273a40.872,40.872,0,0,0,5.441.042,60.217,60.217,0,0,1,12.5.72,54.731,54.731,0,0,0,7.217.658" transform="translate(-336.668 -454.563)" fill="#e2dd00"></path>
      <path id="Path_103" data-name="Path 103" d="M439.662,563.255c-.039.333-.08.667-.119,1-2.266-.214-4.533-.439-6.8-.628-3.527-.293-7.063-.483-10.591-.755-3.328-.257-6.661-.493-9.977-.866a51.445,51.445,0,0,0-9.475-.332c-.053-.453-.105-.905-.155-1.356l1.162-.027a57.046,57.046,0,0,1,8.669.519,73.167,73.167,0,0,0,7.792.708A121.011,121.011,0,0,1,435.63,562.8c1.341.2,2.685.352,4.032.459" transform="translate(-338.483 -471.119)" fill="#e2dd00"></path>
      <path id="Path_104" data-name="Path 104" d="M436.048,505.157q-.071.784-.148,1.567l-2.484.129a41.577,41.577,0,0,1-8.677-.414,32.988,32.988,0,0,0-9.93-.041,49.112,49.112,0,0,1-17.414-.9c-.134-.029-.269-.058-.4-.085q-.059-.653-.116-1.307c.1.024.2.049.3.075a42.927,42.927,0,0,0,12.2,1.613c2.474-.1,4.941-.4,7.417-.5a73.249,73.249,0,0,1,7.359-.056,82.277,82.277,0,0,0,11.889-.082" transform="translate(-333.719 -423.889)" fill="#e2dd00"></path>
      <path id="Path_105" data-name="Path 105" d="M434.475,461.173q-.064.939-.135,1.882c-5.227.907-10.436,1.929-15.736,2.324-3.464.259-6.931.487-10.4.619a45.244,45.244,0,0,1-13.856-1.926c-.031-.4-.061-.8-.09-1.2,1.492.369,2.977.772,4.471,1.133a37.863,37.863,0,0,0,11.536,1.014c4.148-.288,8.3-.618,12.415-1.2,2.816-.395,5.57-1.23,8.345-1.9q1.723-.416,3.451-.745" transform="translate(-331.517 -387.784)" fill="#e2dd00"></path>
      <path id="Path_106" data-name="Path 106" d="M435.247,486.95q-.064.8-.133,1.608l-1.992.208a76.892,76.892,0,0,1-7.687.456c-4.829.015-9.649.048-14.46.539a40.521,40.521,0,0,1-15.185-1.45l-.16-.044c-.032-.366-.061-.732-.09-1.1.545.15,1.087.3,1.63.454a42.738,42.738,0,0,0,12.968,1.308c5.2-.182,10.4-.386,15.585-.772,3.187-.238,6.365-.708,9.525-1.211" transform="translate(-332.595 -409.459)" fill="#e2dd00"></path>
    </g>
  </g>
</svg>
